<?xml version="1.0" standalone="no"?>
<!DOCTYPE svg PUBLIC "-//W3C//DTD SVG 20010904//EN"
 "http://www.w3.org/TR/2001/REC-SVG-20010904/DTD/svg10.dtd">
<svg version="1.0" xmlns="http://www.w3.org/2000/svg"
 width="1024.000000pt" height="1024.000000pt" viewBox="0 0 1024.000000 1024.000000"
 preserveAspectRatio="xMidYMid meet">

<g transform="translate(0.000000,1024.000000) scale(0.100000,-0.100000)"
fill="#000000" stroke="none">
<path d="M4990 8847 c-3 -2 -57 -7 -120 -10 -376 -20 -849 -183 -1185 -408
-382 -257 -655 -569 -849 -970 -123 -254 -186 -446 -220 -671 -72 -468 -13
-921 176 -1353 149 -339 439 -712 727 -935 122 -95 137 -106 235 -166 275
-172 674 -316 1026 -371 272 -43 643 -14 946 72 300 86 492 172 716 322 257
171 458 362 645 613 212 284 370 622 434 928 47 228 61 532 34 767 -35 316
-88 497 -230 790 -197 408 -487 733 -884 993 -333 218 -679 341 -1071 381
-117 12 -373 24 -380 18z m445 -192 c516 -80 972 -314 1325 -681 191 -198 313
-373 427 -614 85 -179 138 -333 173 -510 80 -401 56 -819 -67 -1170 -159 -454
-496 -894 -898 -1171 -215 -148 -393 -233 -638 -304 -391 -112 -732 -133
-1056 -66 -606 126 -1035 372 -1411 810 -57 66 -134 167 -173 223 -128 191
-255 476 -311 703 -26 106 -46 247 -61 435 -8 95 10 337 36 499 60 376 279
807 573 1126 293 317 712 572 1103 669 89 22 307 60 408 70 96 10 465 -3 570
-19z"/>
<path d="M5036 8259 c-20 -24 -26 -41 -26 -80 0 -28 5 -59 10 -70 15 -26 62
-49 105 -49 33 0 38 4 55 43 25 55 25 92 -1 133 -39 64 -101 74 -143 23z"/>
<path d="M6469 7767 c-148 -62 -225 -123 -339 -266 -87 -109 -163 -278 -180
-403 -13 -93 1 -240 35 -344 23 -75 87 -194 138 -257 l22 -28 5 -582 5 -582
24 -60 c78 -196 321 -232 447 -66 67 87 64 24 63 1300 0 636 -4 1180 -8 1209
-10 71 -34 94 -103 99 -39 3 -67 -2 -109 -20z m55 -815 l-2 -647 -100 -3
c-118 -3 -112 -11 -112 139 0 106 0 106 -86 200 -55 60 -81 112 -99 199 -46
218 7 431 146 588 68 76 199 169 244 171 7 1 10 -220 9 -647z m6 -1227 l0
-423 -35 -31 c-65 -56 -142 -33 -174 52 -10 27 -17 818 -7 828 2 2 52 3 110 1
l106 -3 0 -424z"/>
<path d="M5015 7685 c-205 -47 -344 -140 -448 -301 -97 -150 -131 -341 -88
-499 38 -139 117 -263 223 -352 56 -46 115 -75 219 -107 123 -38 210 -36 342
7 242 79 366 203 452 452 20 60 23 212 6 300 -42 205 -228 412 -432 479 -96
32 -195 40 -274 21z m229 -182 c138 -48 255 -168 298 -305 22 -72 24 -210 4
-284 -42 -159 -164 -285 -316 -327 -190 -53 -353 -10 -477 126 -134 146 -163
381 -68 566 95 189 360 295 559 224z"/>
<path d="M5036 7385 c-36 -33 -36 -91 1 -135 23 -28 30 -31 62 -25 91 15 111
128 31 170 -41 21 -63 19 -94 -10z"/>
<path d="M5269 7125 c-34 -19 -61 -76 -57 -122 3 -33 7 -38 50 -56 55 -22 88
-18 124 18 38 38 34 97 -10 141 -37 37 -65 42 -107 19z"/>
<path d="M4827 7119 c-21 -12 -47 -67 -47 -98 0 -11 12 -33 26 -50 21 -25 33
-31 65 -31 22 0 53 7 69 15 24 13 30 22 30 49 0 19 3 41 6 50 4 10 -9 25 -37
45 -43 32 -80 38 -112 20z"/>
<path d="M5012 7064 c-32 -22 -27 -83 8 -101 34 -17 124 -17 139 1 18 22 0 89
-29 103 -34 17 -91 16 -118 -3z"/>
<path d="M5041 6834 c-52 -44 -38 -97 33 -124 23 -8 34 -7 59 7 40 24 51 44
43 77 -7 27 -58 66 -88 66 -9 0 -30 -12 -47 -26z"/>
<path d="M3727 7649 c-39 -23 -47 -61 -46 -221 0 -193 15 -497 24 -521 18 -44
109 -62 140 -27 16 18 18 46 16 372 -2 324 -3 355 -20 378 -20 28 -82 38 -114
19z"/>
<path d="M4019 7634 l-24 -26 0 -251 c0 -139 2 -324 5 -412 4 -146 2 -164 -17
-206 -11 -25 -40 -64 -63 -87 l-43 -41 8 -593 c5 -326 8 -612 7 -636 -5 -145
-148 -186 -236 -68 -29 38 -33 195 -11 442 9 104 20 338 25 519 l9 330 -53 55
c-30 30 -59 65 -65 77 -8 15 -11 152 -11 441 0 408 -1 421 -21 446 -27 34 -77
35 -116 2 l-28 -24 0 -424 c0 -306 3 -434 12 -463 7 -22 31 -71 53 -107 l40
-67 0 -298 c0 -164 -5 -361 -10 -438 -16 -219 -17 -444 -2 -492 30 -101 120
-190 220 -219 49 -15 66 -15 117 -5 32 7 71 19 85 26 44 23 111 95 133 143 25
55 26 108 12 839 l-8 432 32 39 c17 22 46 71 63 109 31 64 33 74 32 178 -1 61
-2 257 -3 437 l-2 327 -26 21 c-36 28 -84 26 -114 -6z"/>
<path d="M5047 6097 c-62 -58 -59 -133 5 -198 56 -55 135 -34 177 48 25 49 6
110 -49 157 -45 37 -89 35 -133 -7z"/>
<path d="M5063 5570 c-38 -23 -53 -48 -53 -90 0 -101 99 -146 174 -80 60 53
55 121 -13 169 -36 26 -67 26 -108 1z"/>
<path d="M5061 5094 c-47 -39 -57 -102 -26 -176 7 -18 63 -48 90 -48 67 0 109
105 70 180 -18 34 -61 70 -86 70 -9 0 -31 -12 -48 -26z"/>
<path d="M5082 4564 c-25 -17 -29 -52 -7 -60 8 -4 21 -1 29 5 7 6 20 9 29 5
23 -9 30 14 13 41 -19 29 -33 31 -64 9z"/>
<path d="M5098 4483 c7 -3 16 -2 19 1 4 3 -2 6 -13 5 -11 0 -14 -3 -6 -6z"/>
<path d="M7748 8315 c-40 -27 -78 -96 -78 -141 1 -41 33 -107 64 -132 76 -59
151 -47 204 32 48 73 41 145 -22 214 -50 56 -111 66 -168 27z"/>
<path d="M2269 8261 c-33 -32 -39 -45 -39 -80 0 -54 21 -94 63 -120 51 -32 83
-27 128 17 64 65 64 119 0 184 -54 53 -98 53 -152 -1z"/>
<path d="M8082 7340 c-55 -53 -63 -65 -60 -92 2 -25 9 -33 33 -41 17 -5 46
-25 65 -43 27 -26 45 -34 71 -34 32 0 41 6 78 55 55 75 54 94 -14 161 -75 72
-92 72 -173 -6z"/>
<path d="M1853 7360 c-36 -21 -58 -52 -68 -91 -5 -22 0 -33 27 -58 18 -18 50
-41 70 -52 65 -34 100 -23 148 43 41 57 39 82 -14 134 -38 39 -49 44 -87 44
-26 0 -57 -8 -76 -20z"/>
<path d="M8150 6400 c-71 -71 -51 -119 58 -140 86 -16 131 12 132 83 0 57 -43
97 -104 97 -40 0 -51 -5 -86 -40z"/>
<path d="M1892 6398 c-7 -7 -12 -19 -12 -28 0 -9 -5 -21 -11 -27 -13 -13 34
-53 62 -53 16 0 59 43 59 60 0 4 -11 19 -25 34 -26 28 -54 33 -73 14z"/>
<path d="M1907 5594 c-3 -11 -8 -31 -11 -47 -4 -18 -18 -33 -43 -45 -20 -9
-41 -24 -46 -33 -16 -26 0 -64 38 -90 21 -15 43 -42 55 -72 l21 -48 47 3 c47
3 47 3 61 50 10 33 20 48 36 52 41 10 75 45 75 77 0 23 -7 34 -32 47 -36 19
-76 55 -100 90 -22 32 -94 43 -101 16z"/>
<path d="M8153 5588 c-6 -7 -16 -29 -22 -49 -8 -25 -21 -41 -41 -49 -76 -32
-77 -87 -1 -129 32 -17 48 -35 59 -63 27 -68 101 -61 123 12 9 31 19 42 38 46
47 11 71 33 71 64 0 31 -35 66 -76 76 -13 3 -28 19 -35 37 -7 18 -19 40 -27
50 -17 20 -75 23 -89 5z"/>
<path d="M7755 4751 c-109 -51 -149 -171 -86 -258 54 -75 154 -94 233 -44 129
82 133 207 8 283 -62 37 -106 43 -155 19z"/>
<path d="M2698 3433 c-36 -48 -160 -287 -216 -418 -150 -350 -192 -455 -192
-478 0 -36 28 -49 103 -45 l62 3 27 54 c15 29 36 68 47 87 l20 34 186 0 186 0
31 -67 c46 -104 58 -113 143 -113 75 0 95 9 95 45 0 24 -120 300 -250 575 -50
107 -100 216 -111 242 -24 60 -68 128 -83 128 -7 0 -28 -21 -48 -47z m78 -436
c68 -150 72 -137 -46 -137 l-102 0 6 26 c8 31 89 203 96 204 3 0 24 -42 46
-93z"/>
<path d="M4504 3419 c-18 -5 -54 -24 -80 -41 -97 -65 -118 -169 -57 -278 31
-57 37 -46 -50 -107 -92 -64 -133 -150 -124 -260 8 -106 68 -182 187 -236 98
-44 300 -18 380 50 l30 25 35 -31 c82 -72 133 -76 198 -15 l38 35 -30 37 c-16
20 -50 55 -74 76 l-44 39 78 111 79 110 -22 23 c-27 29 -97 63 -129 63 -21 0
-32 -14 -73 -90 -27 -49 -52 -90 -55 -90 -9 0 -93 88 -125 132 -30 40 -29 43
31 53 53 8 116 73 133 135 44 164 -143 312 -326 259z m120 -170 c29 -14 51
-59 41 -88 -3 -11 -20 -32 -37 -46 -20 -17 -28 -31 -24 -43 3 -9 -9 -1 -28 20
-44 46 -65 110 -45 134 12 15 43 32 61 33 4 1 18 -4 32 -10z m-124 -357 c0 -5
38 -47 85 -95 47 -48 85 -91 85 -97 0 -15 -55 -40 -105 -47 -89 -12 -175 45
-175 117 0 37 13 65 48 103 24 25 62 37 62 19z"/>
<path d="M5609 3416 c-95 -25 -180 -94 -215 -174 -25 -55 -23 -166 4 -217 40
-79 106 -124 249 -170 42 -14 88 -35 100 -47 30 -28 29 -69 -1 -104 -35 -41
-100 -39 -183 5 -35 19 -73 43 -85 55 l-23 21 -63 -73 c-69 -81 -69 -87 -10
-138 42 -35 116 -69 198 -90 126 -32 255 4 342 97 69 73 92 127 85 199 -12
132 -70 191 -257 260 -110 41 -134 54 -148 84 -16 36 1 71 45 91 28 14 40 14
71 4 43 -14 139 -66 148 -80 3 -6 19 12 36 38 16 26 44 63 61 80 30 32 30 33
12 53 -31 35 -124 82 -198 101 -81 22 -104 22 -168 5z"/>
<path d="M7772 3411 c-26 -16 -32 -92 -32 -459 0 -314 2 -378 15 -402 31 -59
122 -79 169 -37 l26 22 0 200 c1 110 1 302 0 427 l0 227 -30 16 c-31 16 -126
20 -148 6z"/>
<path d="M8119 3391 c-14 -17 -19 -40 -19 -83 0 -50 4 -63 25 -84 25 -24 30
-25 128 -23 l102 3 -5 -80 c-3 -43 -5 -188 -4 -322 l1 -243 27 -28 c35 -36
101 -56 138 -42 57 22 58 25 58 383 l0 328 63 1 c34 1 70 0 81 -1 46 -5 86 11
101 40 18 35 19 119 2 141 -28 37 -49 39 -367 36 l-312 -2 -19 -24z"/>
<path d="M1570 3400 c-13 -8 -15 -71 -18 -444 -2 -388 -1 -435 13 -450 14 -14
52 -16 295 -16 324 0 300 -9 300 114 l0 75 -37 10 c-21 6 -111 11 -200 11
l-163 0 0 79 0 79 167 1 c200 0 198 -1 189 101 -8 78 -20 90 -91 90 -29 0 -99
3 -156 6 l-104 7 -2 71 -3 71 185 0 c154 0 187 3 195 15 14 22 12 164 -2 178
-15 15 -545 17 -568 2z"/>
<path d="M3236 3388 c-22 -33 -28 -98 -13 -138 18 -52 46 -61 155 -54 l92 7 0
-189 c0 -104 3 -254 7 -334 6 -132 8 -146 29 -167 42 -42 152 -22 171 32 4 11
6 163 5 338 l-2 317 113 0 c99 0 116 2 131 19 26 28 32 120 12 159 l-17 32
-334 0 -335 0 -14 -22z"/>
<path d="M6196 3388 c-14 -20 -16 -72 -16 -428 0 -365 2 -408 17 -430 25 -36
32 -40 93 -40 88 1 94 10 100 148 l5 117 95 6 c163 11 278 84 335 212 72 159
8 330 -153 405 -55 26 -64 27 -258 30 -201 3 -202 3 -218 -20z m400 -221 c25
-27 34 -46 34 -72 0 -47 -24 -91 -58 -109 -29 -15 -165 -26 -169 -13 -2 4 -3
59 -3 122 l0 115 81 -3 c80 -3 83 -4 115 -40z"/>
<path d="M7020 3391 c-6 -13 -10 -168 -10 -436 l0 -416 25 -24 24 -25 249 0
c207 0 252 3 262 15 30 37 18 164 -18 184 -9 5 -88 12 -174 16 l-157 8 -1 329
c0 202 -4 338 -11 349 -8 16 -22 19 -94 19 -73 0 -86 -3 -95 -19z"/>
<path d="M2400 1888 c-87 -44 -110 -118 -60 -188 44 -62 135 -80 196 -38 32
22 84 92 84 113 -1 24 -47 90 -75 106 -52 30 -95 32 -145 7z"/>
<path d="M3043 1903 c-12 -2 -38 -22 -57 -44 -44 -48 -48 -98 -13 -150 65 -98
213 -85 266 24 18 37 20 49 11 73 -30 78 -110 116 -207 97z"/>
<path d="M4283 1891 c-18 -11 -44 -38 -59 -61 -26 -40 -27 -40 -10 -83 21 -55
70 -107 105 -109 80 -4 121 16 157 78 26 45 27 48 13 87 -30 85 -137 131 -206
88z"/>
<path d="M5794 1891 c-77 -47 -94 -120 -44 -189 36 -50 57 -62 110 -62 54 0
93 21 120 65 31 50 30 95 -2 138 -49 63 -126 84 -184 48z"/>
<path d="M3644 1881 c-39 -24 -74 -68 -74 -93 0 -33 40 -98 73 -118 35 -22 74
-25 128 -10 79 22 122 114 83 179 -34 57 -148 80 -210 42z"/>
<path d="M6373 1855 c-50 -52 -55 -88 -22 -141 55 -89 154 -99 226 -22 39 42
46 74 24 124 -25 56 -70 84 -135 84 -46 0 -53 -4 -93 -45z"/>
<path d="M7025 1881 c-46 -27 -85 -79 -85 -110 0 -37 50 -104 89 -121 39 -16
116 -7 151 18 14 10 33 35 44 56 16 32 17 44 7 76 -6 21 -27 52 -46 69 -29 25
-44 31 -83 31 -28 0 -59 -8 -77 -19z"/>
<path d="M7644 1881 c-42 -25 -74 -68 -74 -99 0 -33 34 -86 72 -113 65 -47
165 -12 202 69 22 49 17 79 -21 117 -50 49 -123 60 -179 26z"/>
</g>
</svg>
